<?xml version="1.0" encoding="utf-8"?>
<!-- Generator: Adobe Illustrator 27.4.0, SVG Export Plug-In . SVG Version: 6.00 Build 0)  -->
<svg version="1.1" id="Layer_1" xmlns="http://www.w3.org/2000/svg" xmlns:xlink="http://www.w3.org/1999/xlink" x="0px" y="0px"
	 viewBox="0 0 1000 1000" style="enable-background:new 0 0 1000 1000;" xml:space="preserve">
<style type="text/css">
	.st0{fill:#1C1C1C;}
</style>
<path class="st0" d="M908.6,761.9L564.7,31.5C556,13.2,538,1.1,517.7,0.1c-20.3-1.4-39.7,8.7-50.2,26l-373,604.1
	c-11.6,18.6-11.3,42.3,0.6,60.6l182.4,282.4c14.2,21.8,41,31.6,65.9,24.2L872.5,841c16.1-4.7,29.4-16.2,36.4-31.4
	C915.9,794.4,915.7,776.9,908.6,761.9L908.6,761.9L908.6,761.9z M831.6,793.2L382.5,926c-13.7,4.1-26.8-7.8-24-21.6L519,136.1
	c3-14.4,22.8-16.6,29.1-3.3l297,630.7c5,10.7,0.4,23.5-10.4,28.5C833.7,792.5,832.7,792.9,831.6,793.2L831.6,793.2L831.6,793.2z"/>
</svg>
